<?xml version="1.0" encoding="UTF-8" standalone="no"?>
<!DOCTYPE svg PUBLIC "-//W3C//DTD SVG 1.1//EN"
 "http://www.w3.org/Graphics/SVG/1.1/DTD/svg11.dtd">
<!-- Generated by graphviz version 2.38.0 (20140413.2041)
 -->
<!-- Title: daLaBengBa Pages: 1 -->
<svg width="1400pt" height="1037pt"
 viewBox="0.00 0.00 1399.76 1037.00" xmlns="http://www.w3.org/2000/svg" xmlns:xlink="http://www.w3.org/1999/xlink">
<g id="graph0" class="graph" transform="scale(1 1) rotate(0) translate(4 1033)">
<title>daLaBengBa</title>
<polygon fill="white" stroke="none" points="-4,4 -4,-1033 1395.76,-1033 1395.76,4 -4,4"/>
<!-- 国王（國王）, 100%人类 -->
<g id="node1" class="node"><title>国王（國王）, 100%人类</title>
<path fill="none" stroke="black" d="M1212.76,-1029C1212.76,-1029 920.76,-1029 920.76,-1029 914.76,-1029 908.76,-1023 908.76,-1017 908.76,-1017 908.76,-965 908.76,-965 908.76,-959 914.76,-953 920.76,-953 920.76,-953 1212.76,-953 1212.76,-953 1218.76,-953 1224.76,-959 1224.76,-965 1224.76,-965 1224.76,-1017 1224.76,-1017 1224.76,-1023 1218.76,-1029 1212.76,-1029"/>
<text text-anchor="middle" x="1066.76" y="-1017" font-family="consolas" font-size="10.00">国王（國王）, 100%人类</text>
<text text-anchor="middle" x="1066.76" y="-994" font-family="consolas" font-size="10.00">米现唐元保兹火勺吐假绍兵王</text>
<text text-anchor="middle" x="1066.76" y="-983" font-family="consolas" font-size="10.00">(mǐ xiàn táng yuán bǎo zī huǒ sháo tǔ jiǎ shào bīng wáng)</text>
<text text-anchor="middle" x="1066.76" y="-972" font-family="consolas" font-size="10.00">(米現唐元保茲火勺吐假紹兵王)</text>
</g>
<!-- 公主（公主），50%人类 + 50%龙 -->
<g id="node2" class="node"><title>公主（公主），50%人类 + 50%龙</title>
<path fill="none" stroke="black" d="M632.76,-916C632.76,-916 440.76,-916 440.76,-916 434.76,-916 428.76,-910 428.76,-904 428.76,-904 428.76,-852 428.76,-852 428.76,-846 434.76,-840 440.76,-840 440.76,-840 632.76,-840 632.76,-840 638.76,-840 644.76,-846 644.76,-852 644.76,-852 644.76,-904 644.76,-904 644.76,-910 638.76,-916 632.76,-916"/>
<text text-anchor="middle" x="536.76" y="-904" font-family="consolas" font-size="10.00">公主（公主），50%人类 + 50%龙</text>
<text text-anchor="middle" x="536.76" y="-881" font-family="consolas" font-size="10.00">米娅莫拉苏娜丹妮谢莉红</text>
<text text-anchor="middle" x="536.76" y="-870" font-family="consolas" font-size="10.00">(mǐ yà mò lā sū nà dān nī xiè lì hóng)</text>
<text text-anchor="middle" x="536.76" y="-859" font-family="consolas" font-size="10.00">(米婭莫拉蘇娜丹妮謝莉紅)</text>
</g>
<!-- 国王（國王）, 100%人类&#45;&gt;公主（公主），50%人类 + 50%龙 -->
<g id="edge1" class="edge"><title>国王（國王）, 100%人类&#45;&gt;公主（公主），50%人类 + 50%龙</title>
<path fill="none" stroke="black" d="M908.581,-958.087C871.855,-950.592 832.929,-942.579 796.76,-935 750.333,-925.272 699.299,-914.333 654.831,-904.723"/>
<polygon fill="black" stroke="black" points="655.373,-901.259 644.859,-902.566 653.893,-908.101 655.373,-901.259"/>
<text text-anchor="middle" x="658.859" y="-917.566" font-family="consolas" font-size="10.00"> 亲父</text>
</g>
<!-- 龙（龍），100%龙 -->
<g id="node3" class="node"><title>龙（龍），100%龙</title>
<path fill="none" stroke="black" d="M699.76,-793C699.76,-793 475.76,-793 475.76,-793 469.76,-793 463.76,-787 463.76,-781 463.76,-781 463.76,-729 463.76,-729 463.76,-723 469.76,-717 475.76,-717 475.76,-717 699.76,-717 699.76,-717 705.76,-717 711.76,-723 711.76,-729 711.76,-729 711.76,-781 711.76,-781 711.76,-787 705.76,-793 699.76,-793"/>
<text text-anchor="middle" x="587.76" y="-781" font-family="consolas" font-size="10.00">龙（龍），100%龙</text>
<text text-anchor="middle" x="587.76" y="-758" font-family="consolas" font-size="10.00">昆图库塔卡提考特苏瓦西拉松</text>
<text text-anchor="middle" x="587.76" y="-747" font-family="consolas" font-size="10.00">(kūn tú kù tǎ kǎ tí kǎo tè sū wǎ xī lā sōng)</text>
<text text-anchor="middle" x="587.76" y="-736" font-family="consolas" font-size="10.00">(昆圖庫塔卡提考特蘇瓦西拉松)</text>
</g>
<!-- 国王（國王）, 100%人类&#45;&gt;龙（龍），100%龙 -->
<g id="edge32" class="edge"><title>国王（國王）, 100%人类&#45;&gt;龙（龍），100%龙</title>
<path fill="none" stroke="green" d="M990.861,-952.922C904.275,-910.623 763.042,-841.628 672.811,-797.549"/>
<polygon fill="green" stroke="green" points="674.221,-794.342 663.699,-793.098 671.148,-800.632 674.221,-794.342"/>
<text text-anchor="middle" x="939.26" y="-881" font-family="consolas" font-size="10.00" fill="green"> 和母龙生</text>
<text text-anchor="middle" x="939.26" y="-870" font-family="consolas" font-size="10.00" fill="green">下了公主</text>
</g>
<!-- 勇者（勇者），50%人类 + 50%龙 -->
<g id="node4" class="node"><title>勇者（勇者），50%人类 + 50%龙</title>
<path fill="none" stroke="black" d="M776.26,-500C776.26,-500 521.26,-500 521.26,-500 515.26,-500 509.26,-494 509.26,-488 509.26,-488 509.26,-436 509.26,-436 509.26,-430 515.26,-424 521.26,-424 521.26,-424 776.26,-424 776.26,-424 782.26,-424 788.26,-430 788.26,-436 788.26,-436 788.26,-488 788.26,-488 788.26,-494 782.26,-500 776.26,-500"/>
<text text-anchor="middle" x="648.76" y="-488" font-family="consolas" font-size="10.00">勇者（勇者），50%人类 + 50%龙</text>
<text text-anchor="middle" x="648.76" y="-465" font-family="consolas" font-size="10.00">达拉崩吧/巴斑得贝迪卜多比鲁翁</text>
<text text-anchor="middle" x="648.76" y="-454" font-family="consolas" font-size="10.00">(dá lā bēng ba/bā bān dé bèi dí bo duō bǐ lǔ wēng)</text>
<text text-anchor="middle" x="648.76" y="-443" font-family="consolas" font-size="10.00">(達拉崩吧/巴斑得貝迪卜多比魯翁)</text>
</g>
<!-- 国王（國王）, 100%人类&#45;&gt;勇者（勇者），50%人类 + 50%龙 -->
<g id="edge2" class="edge"><title>国王（國王）, 100%人类&#45;&gt;勇者（勇者），50%人类 + 50%龙</title>
<path fill="none" stroke="black" d="M1090.57,-952.698C1147.17,-861.796 1281.36,-631.765 1230.76,-570 1177.25,-504.676 952.469,-479.126 798.448,-469.204"/>
<polygon fill="black" stroke="black" points="798.608,-465.707 788.408,-468.573 798.168,-472.694 798.608,-465.707"/>
<text text-anchor="middle" x="1227.76" y="-752.5" font-family="consolas" font-size="10.00"> 招募</text>
</g>
<!-- 国王（國王）, 100%人类&#45;&gt;勇者（勇者），50%人类 + 50%龙 -->
<g id="edge3" class="edge"><title>国王（國王）, 100%人类&#45;&gt;勇者（勇者），50%人类 + 50%龙</title>
<path fill="none" stroke="black" d="M1225.02,-959.255C1260.45,-942.833 1287.76,-917.642 1287.76,-879 1287.76,-879 1287.76,-879 1287.76,-607 1287.76,-590.503 1201.73,-524.607 1185.76,-518 1118.08,-490.006 932.861,-475.693 798.862,-468.791"/>
<polygon fill="black" stroke="black" points="798.661,-465.276 788.497,-468.266 798.307,-472.267 798.661,-465.276"/>
<text text-anchor="middle" x="1307.76" y="-758" font-family="consolas" font-size="10.00"> 岳父，</text>
<text text-anchor="middle" x="1307.76" y="-747" font-family="consolas" font-size="10.00">补血</text>
</g>
<!-- 王后（王后）, 100%人类 -->
<g id="node6" class="node"><title>王后（王后）, 100%人类</title>
<path fill="none" stroke="black" d="M1209.26,-646C1209.26,-646 996.26,-646 996.26,-646 990.26,-646 984.26,-640 984.26,-634 984.26,-634 984.26,-582 984.26,-582 984.26,-576 990.26,-570 996.26,-570 996.26,-570 1209.26,-570 1209.26,-570 1215.26,-570 1221.26,-576 1221.26,-582 1221.26,-582 1221.26,-634 1221.26,-634 1221.26,-640 1215.26,-646 1209.26,-646"/>
<text text-anchor="middle" x="1102.76" y="-634" font-family="consolas" font-size="10.00">王后（王后）, 100%人类</text>
<text text-anchor="middle" x="1102.76" y="-611" font-family="consolas" font-size="10.00">卡拉茨瓦般得贝荻桑哈玛丽亚</text>
<text text-anchor="middle" x="1102.76" y="-600" font-family="consolas" font-size="10.00">kǎ lā cí wǎ bān dé bèi dí sāng hā mǎ lì yà</text>
<text text-anchor="middle" x="1102.76" y="-589" font-family="consolas" font-size="10.00">(卡拉茨瓦般得貝荻桑哈瑪麗亞)</text>
</g>
<!-- 国王（國王）, 100%人类&#45;&gt;王后（王后）, 100%人类 -->
<g id="edge4" class="edge"><title>国王（國王）, 100%人类&#45;&gt;王后（王后）, 100%人类</title>
<path fill="none" stroke="black" d="M1081.84,-942.929C1084.19,-934.063 1086.31,-924.809 1087.76,-916 1102.71,-824.906 1104.3,-716.738 1103.77,-656.168"/>
<polygon fill="black" stroke="black" points="1078.43,-942.157 1079.12,-952.729 1085.17,-944.03 1078.43,-942.157"/>
<polygon fill="black" stroke="black" points="1107.27,-656.106 1103.65,-646.146 1100.27,-656.185 1107.27,-656.106"/>
<text text-anchor="middle" x="1112.76" y="-814" font-family="consolas" font-size="10.00"> 夫妻</text>
</g>
<!-- 母龙（母龍），100%龙 -->
<g id="node8" class="node"><title>母龙（母龍），100%龙</title>
<path fill="none" stroke="black" d="M210.76,-646C210.76,-646 106.76,-646 106.76,-646 100.76,-646 94.7598,-640 94.7598,-634 94.7598,-634 94.7598,-582 94.7598,-582 94.7598,-576 100.76,-570 106.76,-570 106.76,-570 210.76,-570 210.76,-570 216.76,-570 222.76,-576 222.76,-582 222.76,-582 222.76,-634 222.76,-634 222.76,-640 216.76,-646 210.76,-646"/>
<text text-anchor="middle" x="158.76" y="-634" font-family="consolas" font-size="10.00">母龙（母龍），100%龙</text>
<text text-anchor="middle" x="158.76" y="-611" font-family="consolas" font-size="10.00">希拉</text>
<text text-anchor="middle" x="158.76" y="-600" font-family="consolas" font-size="10.00">xīlā</text>
<text text-anchor="middle" x="158.76" y="-589" font-family="consolas" font-size="10.00">(希拉)</text>
</g>
<!-- 国王（國王）, 100%人类&#45;&gt;母龙（母龍），100%龙 -->
<g id="edge5" class="edge"><title>国王（國王）, 100%人类&#45;&gt;母龙（母龍），100%龙</title>
<path fill="none" stroke="black" d="M908.531,-989.587C642.315,-985.061 123.196,-958.486 14.7598,-822 -29.834,-765.871 38.1978,-696.337 95.0946,-652.308"/>
<polygon fill="black" stroke="black" points="97.5492,-654.838 103.394,-646.001 93.314,-649.265 97.5492,-654.838"/>
<text text-anchor="middle" x="28.7598" y="-814" font-family="consolas" font-size="10.00"> 春宵</text>
</g>
<!-- 公主（公主），50%人类 + 50%龙&#45;&gt;龙（龍），100%龙 -->
<g id="edge19" class="edge"><title>公主（公主），50%人类 + 50%龙&#45;&gt;龙（龍），100%龙</title>
<path fill="none" stroke="black" d="M557.406,-839.823C560.371,-833.936 563.259,-827.857 565.76,-822 568.404,-815.805 570.941,-809.178 573.29,-802.6"/>
<polygon fill="black" stroke="black" points="576.631,-803.649 576.591,-793.054 570.015,-801.361 576.631,-803.649"/>
<text text-anchor="middle" x="584.76" y="-814" font-family="consolas" font-size="10.00"> 严管</text>
</g>
<!-- 王浩然（王浩然），25%人类 + 75%龙 -->
<g id="node5" class="node"><title>王浩然（王浩然），25%人类 + 75%龙</title>
<path fill="none" stroke="black" d="M436.76,-366C436.76,-366 134.76,-366 134.76,-366 128.76,-366 122.76,-360 122.76,-354 122.76,-354 122.76,-236 122.76,-236 122.76,-230 128.76,-224 134.76,-224 134.76,-224 436.76,-224 436.76,-224 442.76,-224 448.76,-230 448.76,-236 448.76,-236 448.76,-354 448.76,-354 448.76,-360 442.76,-366 436.76,-366"/>
<text text-anchor="middle" x="285.76" y="-354" font-family="consolas" font-size="10.00">王浩然（王浩然），25%人类 + 75%龙</text>
<text text-anchor="middle" x="285.76" y="-331" font-family="consolas" font-size="10.00">王格里拉德玛西亚卜多比鲁翁</text>
<text text-anchor="middle" x="285.76" y="-320" font-family="consolas" font-size="10.00">浩淏殇觞笺酅彟豳夔櫼爨纛褎</text>
<text text-anchor="middle" x="285.76" y="-309" font-family="consolas" font-size="10.00">然维萨尔卡拉奥克苏瓦西拉松</text>
<text text-anchor="middle" x="285.76" y="-298" font-family="consolas" font-size="10.00">(wáng gé lǐ lā dé mǎ xī yǎ bo duō bǐ lǔ wēng</text>
<text text-anchor="middle" x="285.76" y="-287" font-family="consolas" font-size="10.00"> hào hào shāng shāng jiān xī yuē bīn kuí ji ān cuàn dào xiù</text>
<text text-anchor="middle" x="285.76" y="-276" font-family="consolas" font-size="10.00"> rán wéi sà ěr kǎ lā ào kè sū wǎ xī lā sōng)</text>
<text text-anchor="middle" x="285.76" y="-265" font-family="consolas" font-size="10.00">(王格里拉德瑪西亞卜多比魯翁</text>
<text text-anchor="middle" x="285.76" y="-254" font-family="consolas" font-size="10.00">浩淏殤觴牋酅彟豳夔櫼爨纛褎</text>
<text text-anchor="middle" x="285.76" y="-243" font-family="consolas" font-size="10.00">然維薩爾卡拉奧克蘇瓦西拉松)</text>
</g>
<!-- 公主（公主），50%人类 + 50%龙&#45;&gt;王浩然（王浩然），25%人类 + 75%龙 -->
<g id="edge20" class="edge"><title>公主（公主），50%人类 + 50%龙&#45;&gt;王浩然（王浩然），25%人类 + 75%龙</title>
<path fill="none" stroke="black" d="M428.739,-871.338C287.194,-860.906 56.7598,-832.218 56.7598,-756 56.7598,-756 56.7598,-756 56.7598,-461 56.7598,-420.005 81.2162,-388.182 114.144,-363.916"/>
<polygon fill="black" stroke="black" points="116.522,-366.523 122.689,-357.908 112.495,-360.797 116.522,-366.523"/>
<text text-anchor="middle" x="103.189" y="-360.908" font-family="consolas" font-size="10.00"> 亲母 &#160;</text>
</g>
<!-- 龙（龍），100%龙&#45;&gt;国王（國王）, 100%人类 -->
<g id="edge33" class="edge"><title>龙（龍），100%龙&#45;&gt;国王（國王）, 100%人类</title>
<path fill="none" stroke="green" d="M711.784,-759.681C791.31,-767.433 893.386,-787.93 968.76,-840 1005.61,-865.454 1032,-909.717 1048.05,-943.584"/>
<polygon fill="green" stroke="green" points="1044.95,-945.212 1052.3,-952.837 1051.31,-942.289 1044.95,-945.212"/>
<text text-anchor="middle" x="1058.26" y="-881" font-family="consolas" font-size="10.00" fill="green"> 和王后生</text>
<text text-anchor="middle" x="1058.26" y="-870" font-family="consolas" font-size="10.00" fill="green">下了勇者</text>
</g>
<!-- 龙（龍），100%龙&#45;&gt;公主（公主），50%人类 + 50%龙 -->
<g id="edge6" class="edge"><title>龙（龍），100%龙&#45;&gt;公主（公主），50%人类 + 50%龙</title>
<path fill="none" stroke="black" d="M547.811,-793.226C543.755,-798.785 540.227,-804.76 537.76,-811 535.437,-816.875 534.069,-823.28 533.351,-829.714"/>
<polygon fill="black" stroke="black" points="529.853,-829.577 532.715,-839.778 536.839,-830.018 529.853,-829.577"/>
<text text-anchor="middle" x="551.76" y="-814" font-family="consolas" font-size="10.00"> 掳走</text>
</g>
<!-- 龙（龍），100%龙&#45;&gt;勇者（勇者），50%人类 + 50%龙 -->
<g id="edge7" class="edge"><title>龙（龍），100%龙&#45;&gt;勇者（勇者），50%人类 + 50%龙</title>
<path fill="none" stroke="black" d="M598.652,-716.716C604.481,-695.999 611.518,-669.695 616.76,-646 626.885,-600.232 635.828,-547.449 641.667,-510.367"/>
<polygon fill="black" stroke="black" points="645.147,-510.763 643.23,-500.343 638.231,-509.685 645.147,-510.763"/>
<text text-anchor="middle" x="645.76" y="-605.5" font-family="consolas" font-size="10.00"> 诈败</text>
</g>
<!-- 龙（龍），100%龙&#45;&gt;勇者（勇者），50%人类 + 50%龙 -->
<g id="edge11" class="edge"><title>龙（龍），100%龙&#45;&gt;勇者（勇者），50%人类 + 50%龙</title>
<path fill="none" stroke="black" d="M622.686,-716.662C638.524,-697.176 655.525,-672.011 663.76,-646 677.875,-601.415 670.886,-547.831 662.345,-510.205"/>
<polygon fill="black" stroke="black" points="665.643,-508.947 659.912,-500.036 658.836,-510.576 665.643,-508.947"/>
<text text-anchor="middle" x="686.76" y="-605.5" font-family="consolas" font-size="10.00"> 亲父</text>
</g>
<!-- 龙（龍），100%龙&#45;&gt;勇者（勇者），50%人类 + 50%龙 -->
<g id="edge12" class="edge"><title>龙（龍），100%龙&#45;&gt;勇者（勇者），50%人类 + 50%龙</title>
<path fill="none" stroke="black" d="M648.131,-716.838C671.171,-698.781 694.388,-674.731 704.76,-646 721.348,-600.049 700.406,-546.511 679.574,-509.262"/>
<polygon fill="black" stroke="black" points="682.342,-507.058 674.303,-500.157 676.284,-510.565 682.342,-507.058"/>
<text text-anchor="middle" x="756.26" y="-611" font-family="consolas" font-size="10.00"> 杀死</text>
<text text-anchor="middle" x="756.26" y="-600" font-family="consolas" font-size="10.00">（王浩然夺还战）</text>
</g>
<!-- 龙（龍），100%龙&#45;&gt;勇者（勇者），50%人类 + 50%龙 -->
<g id="edge34" class="edge"><title>龙（龍），100%龙&#45;&gt;勇者（勇者），50%人类 + 50%龙</title>
<path fill="none" stroke="green" d="M712.014,-720.419C748.565,-704.129 784.435,-680.363 805.76,-646 823.571,-617.3 821.546,-599.862 805.76,-570 791.564,-543.145 767.265,-521.765 741.969,-505.396"/>
<polygon fill="green" stroke="green" points="743.703,-502.353 733.365,-500.036 740.002,-508.295 743.703,-502.353"/>
<text text-anchor="middle" x="849.76" y="-611" font-family="consolas" font-size="10.00" fill="green"> 和公主生下</text>
<text text-anchor="middle" x="849.76" y="-600" font-family="consolas" font-size="10.00" fill="green">了王浩然</text>
</g>
<!-- 龙（龍），100%龙&#45;&gt;王浩然（王浩然），25%人类 + 75%龙 -->
<g id="edge8" class="edge"><title>龙（龍），100%龙&#45;&gt;王浩然（王浩然），25%人类 + 75%龙</title>
<path fill="none" stroke="black" d="M463.709,-732.039C444.492,-724.167 426.248,-713.486 411.76,-699 366.124,-653.371 323.66,-479.874 301.592,-375.982"/>
<polygon fill="black" stroke="black" points="305.008,-375.215 299.521,-366.152 298.158,-376.659 305.008,-375.215"/>
<text text-anchor="middle" x="359.76" y="-532.5" font-family="consolas" font-size="10.00"> 亲父</text>
</g>
<!-- 龙（龍），100%龙&#45;&gt;王后（王后）, 100%人类 -->
<g id="edge10" class="edge"><title>龙（龍），100%龙&#45;&gt;王后（王后）, 100%人类</title>
<path fill="none" stroke="black" d="M711.783,-743.456C789.737,-734.886 881.611,-720.624 914.76,-699 930.35,-688.83 923.005,-675.347 937.76,-664 945.113,-658.345 958.441,-652.236 974.452,-646.217"/>
<polygon fill="black" stroke="black" points="975.961,-649.393 984.165,-642.688 973.571,-642.814 975.961,-649.393"/>
<text text-anchor="middle" x="963.26" y="-667" font-family="consolas" font-size="10.00"> 抓走三天</text>
</g>
<!-- 龙（龍），100%龙&#45;&gt;母龙（母龍），100%龙 -->
<g id="edge9" class="edge"><title>龙（龍），100%龙&#45;&gt;母龙（母龍），100%龙</title>
<path fill="none" stroke="black" d="M453.425,-747.025C360.857,-739.906 247.769,-725.912 208.76,-699 200.25,-693.129 189.221,-674.187 179.688,-655.185"/>
<polygon fill="black" stroke="black" points="453.224,-750.519 463.458,-747.776 453.747,-743.539 453.224,-750.519"/>
<polygon fill="black" stroke="black" points="182.83,-653.644 175.287,-646.205 176.545,-656.725 182.83,-653.644"/>
<text text-anchor="middle" x="222.76" y="-679" font-family="consolas" font-size="10.00"> 夫妻</text>
</g>
<!-- 勇者（勇者），50%人类 + 50%龙&#45;&gt;国王（國王）, 100%人类 -->
<g id="edge13" class="edge"><title>勇者（勇者），50%人类 + 50%龙&#45;&gt;国王（國王）, 100%人类</title>
<path fill="none" stroke="black" d="M788.316,-463.153C996.394,-467.209 1363.76,-490.822 1363.76,-607 1363.76,-879 1363.76,-879 1363.76,-879 1363.76,-911.135 1301.98,-937.047 1234.77,-955.728"/>
<polygon fill="black" stroke="black" points="1233.56,-952.431 1224.83,-958.432 1235.39,-959.186 1233.56,-952.431"/>
<text text-anchor="middle" x="1377.76" y="-752.5" font-family="consolas" font-size="10.00"> 女婿</text>
</g>
<!-- 勇者（勇者），50%人类 + 50%龙&#45;&gt;公主（公主），50%人类 + 50%龙 -->
<g id="edge16" class="edge"><title>勇者（勇者），50%人类 + 50%龙&#45;&gt;公主（公主），50%人类 + 50%龙</title>
<path fill="none" stroke="black" d="M499.986,-499.196C490.894,-504.613 482.363,-510.84 474.76,-518 424.163,-565.644 431.416,-595.664 418.76,-664 407.92,-722.529 422.661,-742.872 454.76,-793 463.679,-806.929 475.184,-820.468 486.739,-832.465"/>
<polygon fill="black" stroke="black" points="501.834,-502.173 508.864,-494.246 498.426,-496.058 501.834,-502.173"/>
<polygon fill="black" stroke="black" points="484.398,-835.075 493.917,-839.725 489.375,-830.154 484.398,-835.075"/>
<text text-anchor="middle" x="432.76" y="-679" font-family="consolas" font-size="10.00"> 夫妻</text>
</g>
<!-- 勇者（勇者），50%人类 + 50%龙&#45;&gt;龙（龍），100%龙 -->
<g id="edge14" class="edge"><title>勇者（勇者），50%人类 + 50%龙&#45;&gt;龙（龍），100%龙</title>
<path fill="none" stroke="black" d="M535.339,-500.089C525.576,-505.372 516.213,-511.322 507.76,-518 485.703,-535.424 480.141,-543.169 471.76,-570 454.012,-626.817 465.789,-656.792 507.76,-699 511.622,-702.884 515.793,-706.669 520.133,-710.316"/>
<polygon fill="black" stroke="black" points="518.11,-713.181 528.094,-716.725 522.499,-707.728 518.11,-713.181"/>
<text text-anchor="middle" x="485.76" y="-605.5" font-family="consolas" font-size="10.00"> 诈胜</text>
</g>
<!-- 勇者（勇者），50%人类 + 50%龙&#45;&gt;龙（龍），100%龙 -->
<g id="edge18" class="edge"><title>勇者（勇者），50%人类 + 50%龙&#45;&gt;龙（龍），100%龙</title>
<path fill="none" stroke="black" d="M584.334,-500.138C560.003,-517.878 535.012,-541.505 521.76,-570 500.405,-615.916 526.367,-670.818 551.742,-708.631"/>
<polygon fill="black" stroke="black" points="548.9,-710.674 557.468,-716.906 554.656,-706.691 548.9,-710.674"/>
<text text-anchor="middle" x="567.26" y="-611" font-family="consolas" font-size="10.00"> 战败</text>
<text text-anchor="middle" x="567.26" y="-600" font-family="consolas" font-size="10.00">（王浩然夺还战）</text>
</g>
<!-- 勇者（勇者），50%人类 + 50%龙&#45;&gt;王浩然（王浩然），25%人类 + 75%龙 -->
<g id="edge15" class="edge"><title>勇者（勇者），50%人类 + 50%龙&#45;&gt;王浩然（王浩然），25%人类 + 75%龙</title>
<path fill="none" stroke="black" d="M546.082,-423.935C531.437,-418.181 516.642,-412.112 502.76,-406 478.143,-395.162 452.346,-382.91 427.479,-370.618"/>
<polygon fill="black" stroke="black" points="428.877,-367.404 418.364,-366.09 425.762,-373.673 428.877,-367.404"/>
<text text-anchor="middle" x="516.76" y="-392.5" font-family="consolas" font-size="10.00"> 养父</text>
</g>
<!-- 小弟（小弟）, 100%人类 -->
<g id="node9" class="node"><title>小弟（小弟）, 100%人类</title>
<path fill="none" stroke="black" d="M728.76,-333C728.76,-333 504.76,-333 504.76,-333 498.76,-333 492.76,-327 492.76,-321 492.76,-321 492.76,-269 492.76,-269 492.76,-263 498.76,-257 504.76,-257 504.76,-257 728.76,-257 728.76,-257 734.76,-257 740.76,-263 740.76,-269 740.76,-269 740.76,-321 740.76,-321 740.76,-327 734.76,-333 728.76,-333"/>
<text text-anchor="middle" x="616.76" y="-321" font-family="consolas" font-size="10.00">小弟（小弟）, 100%人类</text>
<text text-anchor="middle" x="616.76" y="-298" font-family="consolas" font-size="10.00">达拉肯塔潘特库卡考提谢利翁</text>
<text text-anchor="middle" x="616.76" y="-287" font-family="consolas" font-size="10.00">dá lā kěn tǎ pān tè kù kǎ kǎo tí xiè lì wēng</text>
<text text-anchor="middle" x="616.76" y="-276" font-family="consolas" font-size="10.00">(達拉肯塔潘特庫卡考提謝利翁)</text>
</g>
<!-- 勇者（勇者），50%人类 + 50%龙&#45;&gt;小弟（小弟）, 100%人类 -->
<g id="edge17" class="edge"><title>勇者（勇者），50%人类 + 50%龙&#45;&gt;小弟（小弟）, 100%人类</title>
<path fill="none" stroke="black" d="M641.578,-423.971C636.942,-400.065 630.869,-368.751 625.891,-343.083"/>
<polygon fill="black" stroke="black" points="629.313,-342.341 623.973,-333.191 622.441,-343.674 629.313,-342.341"/>
<text text-anchor="middle" x="651.76" y="-392.5" font-family="consolas" font-size="10.00"> 招募</text>
</g>
<!-- 王浩然（王浩然），25%人类 + 75%龙&#45;&gt;龙（龍），100%龙 -->
<g id="edge35" class="edge"><title>王浩然（王浩然），25%人类 + 75%龙&#45;&gt;龙（龍），100%龙</title>
<path fill="none" stroke="green" d="M278.919,-366.018C272.546,-435.753 264.848,-534.848 270.76,-552 297.791,-630.423 316.666,-653.099 385.76,-699 406.182,-712.567 429.867,-722.803 453.677,-730.521"/>
<polygon fill="green" stroke="green" points="452.93,-733.954 463.518,-733.57 455.001,-727.267 452.93,-733.954"/>
<text text-anchor="middle" x="301.76" y="-532" font-family="consolas" font-size="10.00" fill="green"> 和母龙生下</text>
<text text-anchor="middle" x="301.76" y="-521" font-family="consolas" font-size="10.00" fill="green">了龙傲天</text>
</g>
<!-- 王浩然（王浩然），25%人类 + 75%龙&#45;&gt;勇者（勇者），50%人类 + 50%龙 -->
<g id="edge36" class="edge"><title>王浩然（王浩然），25%人类 + 75%龙&#45;&gt;勇者（勇者），50%人类 + 50%龙</title>
<path fill="none" stroke="red" d="M357.791,-372.826C372.637,-385.402 388.916,-397.182 405.76,-406 434.498,-421.044 467.251,-431.994 499.202,-439.957"/>
<polygon fill="red" stroke="red" points="360.004,-370.113 350.162,-366.189 355.409,-375.393 360.004,-370.113"/>
<polygon fill="red" stroke="red" points="498.545,-443.399 509.086,-442.334 500.182,-436.593 498.545,-443.399"/>
<text text-anchor="middle" x="431.26" y="-398" font-family="consolas" font-size="10.00" fill="red"> 同父异母</text>
<text text-anchor="middle" x="431.26" y="-387" font-family="consolas" font-size="10.00" fill="red">的兄弟</text>
</g>
<!-- 龙傲天（龍傲天），12.5%人类 + 87.5%龙 -->
<g id="node7" class="node"><title>龙傲天（龍傲天），12.5%人类 + 87.5%龙</title>
<path fill="none" stroke="black" d="M262.76,-177C262.76,-177 38.7598,-177 38.7598,-177 32.7598,-177 26.7598,-171 26.7598,-165 26.7598,-165 26.7598,-113 26.7598,-113 26.7598,-107 32.7598,-101 38.7598,-101 38.7598,-101 262.76,-101 262.76,-101 268.76,-101 274.76,-107 274.76,-113 274.76,-113 274.76,-165 274.76,-165 274.76,-171 268.76,-177 262.76,-177"/>
<text text-anchor="middle" x="150.76" y="-165" font-family="consolas" font-size="10.00">龙傲天（龍傲天），12.5%人类 + 87.5%龙</text>
<text text-anchor="middle" x="150.76" y="-142" font-family="consolas" font-size="10.00">科龙巴卡傲骨布达拉里天气崩</text>
<text text-anchor="middle" x="150.76" y="-131" font-family="consolas" font-size="10.00">kē lóng bā kǎ ào gǔ bù dá lā lǐ tiān qì bēng</text>
<text text-anchor="middle" x="150.76" y="-120" font-family="consolas" font-size="10.00">(科龍巴卡傲骨布達拉里天氣崩)</text>
</g>
<!-- 王浩然（王浩然），25%人类 + 75%龙&#45;&gt;龙傲天（龍傲天），12.5%人类 + 87.5%龙 -->
<g id="edge22" class="edge"><title>王浩然（王浩然），25%人类 + 75%龙&#45;&gt;龙傲天（龍傲天），12.5%人类 + 87.5%龙</title>
<path fill="none" stroke="black" d="M224.186,-223.76C212.663,-210.615 200.907,-197.205 190.277,-185.079"/>
<polygon fill="black" stroke="black" points="192.692,-182.524 183.468,-177.311 187.428,-187.138 192.692,-182.524"/>
<text text-anchor="middle" x="220.76" y="-198" font-family="consolas" font-size="10.00"> 亲父</text>
</g>
<!-- 王浩然（王浩然），25%人类 + 75%龙&#45;&gt;母龙（母龍），100%龙 -->
<g id="edge21" class="edge"><title>王浩然（王浩然），25%人类 + 75%龙&#45;&gt;母龙（母龍），100%龙</title>
<path fill="none" stroke="black" d="M257.062,-366.276C232.843,-425.583 198.851,-508.824 177.846,-560.261"/>
<polygon fill="black" stroke="black" points="174.493,-559.214 173.953,-569.795 180.974,-561.86 174.493,-559.214"/>
<text text-anchor="middle" x="247.76" y="-459.5" font-family="consolas" font-size="10.00"> 爱上</text>
</g>
<!-- 王后（王后）, 100%人类&#45;&gt;公主（公主），50%人类 + 50%龙 -->
<g id="edge24" class="edge"><title>王后（王后）, 100%人类&#45;&gt;公主（公主），50%人类 + 50%龙</title>
<path fill="none" stroke="black" d="M1061.85,-646.112C1041.01,-663.719 1014.67,-684.108 988.76,-699 881.311,-760.767 748.279,-810.275 654.442,-841.245"/>
<polygon fill="black" stroke="black" points="653.326,-837.928 644.915,-844.37 655.508,-844.579 653.326,-837.928"/>
<text text-anchor="middle" x="664.415" y="-847.37" font-family="consolas" font-size="10.00"> &#160;&#160;养母</text>
</g>
<!-- 王后（王后）, 100%人类&#45;&gt;勇者（勇者），50%人类 + 50%龙 -->
<g id="edge23" class="edge"><title>王后（王后）, 100%人类&#45;&gt;勇者（勇者），50%人类 + 50%龙</title>
<path fill="none" stroke="black" d="M1035.92,-569.898C1001.47,-552.068 958.29,-531.658 917.76,-518 879.761,-505.195 837.689,-494.866 798.324,-486.77"/>
<polygon fill="black" stroke="black" points="798.874,-483.31 788.378,-484.759 797.487,-490.171 798.874,-483.31"/>
<text text-anchor="middle" x="802.378" y="-487.759" font-family="consolas" font-size="10.00"> 亲母</text>
</g>
<!-- break, 100%人类 -->
<g id="node10" class="node"><title>break, 100%人类</title>
<path fill="none" stroke="black" d="M187.26,-54C187.26,-54 114.26,-54 114.26,-54 108.26,-54 102.26,-48 102.26,-42 102.26,-42 102.26,-12 102.26,-12 102.26,-6 108.26,-0 114.26,-0 114.26,-0 187.26,-0 187.26,-0 193.26,-0 199.26,-6 199.26,-12 199.26,-12 199.26,-42 199.26,-42 199.26,-48 193.26,-54 187.26,-54"/>
<text text-anchor="middle" x="150.76" y="-42" font-family="consolas" font-size="10.00">break, 100%人类</text>
<text text-anchor="middle" x="150.76" y="-19" font-family="consolas" font-size="10.00">导演</text>
</g>
<!-- 龙傲天（龍傲天），12.5%人类 + 87.5%龙&#45;&gt;break, 100%人类 -->
<g id="edge31" class="edge"><title>龙傲天（龍傲天），12.5%人类 + 87.5%龙&#45;&gt;break, 100%人类</title>
<path fill="none" stroke="black" d="M150.76,-100.759C150.76,-89.02 150.76,-76.0718 150.76,-64.3926"/>
<polygon fill="black" stroke="black" points="154.26,-64.0946 150.76,-54.0946 147.26,-64.0946 154.26,-64.0946"/>
<text text-anchor="middle" x="170.76" y="-75" font-family="consolas" font-size="10.00"> 写剧本</text>
</g>
<!-- 母龙（母龍），100%龙&#45;&gt;公主（公主），50%人类 + 50%龙 -->
<g id="edge25" class="edge"><title>母龙（母龍），100%龙&#45;&gt;公主（公主），50%人类 + 50%龙</title>
<path fill="none" stroke="black" d="M161.718,-646.089C164.554,-663.383 170.068,-683.513 180.76,-699 236.027,-779.053 338.166,-824.89 418.912,-849.934"/>
<polygon fill="black" stroke="black" points="418.063,-853.333 428.649,-852.886 420.095,-846.635 418.063,-853.333"/>
<text text-anchor="middle" x="409.149" y="-855.886" font-family="consolas" font-size="10.00"> 亲母 &#160;</text>
</g>
<!-- 母龙（母龍），100%龙&#45;&gt;勇者（勇者），50%人类 + 50%龙 -->
<g id="edge26" class="edge"><title>母龙（母龍），100%龙&#45;&gt;勇者（勇者），50%人类 + 50%龙</title>
<path fill="none" stroke="black" d="M222.794,-600.249C265.696,-593.349 321.947,-579.526 364.76,-552 381.226,-541.413 376.038,-528.178 392.76,-518 424.752,-498.528 462.667,-485.893 499.379,-477.711"/>
<polygon fill="black" stroke="black" points="500.135,-481.128 509.187,-475.622 498.677,-474.282 500.135,-481.128"/>
<text text-anchor="middle" x="468.687" y="-478.622" font-family="consolas" font-size="10.00"> 收买 &#160;&#160;&#160;&#160;&#160;&#160;&#160;&#160;&#160;</text>
</g>
<!-- 母龙（母龍），100%龙&#45;&gt;王浩然（王浩然），25%人类 + 75%龙 -->
<g id="edge37" class="edge"><title>母龙（母龍），100%龙&#45;&gt;王浩然（王浩然），25%人类 + 75%龙</title>
<path fill="none" stroke="red" d="M144.951,-560.029C136.297,-521.794 129.971,-467.268 148.76,-424 156.782,-405.526 168.93,-388.505 182.74,-373.313"/>
<polygon fill="red" stroke="red" points="141.576,-560.961 147.311,-569.869 148.383,-559.328 141.576,-560.961"/>
<polygon fill="red" stroke="red" points="185.321,-375.678 189.642,-366.004 180.232,-370.871 185.321,-375.678"/>
<text text-anchor="middle" x="174.26" y="-459.5" font-family="consolas" font-size="10.00" fill="red"> 祖孙关系</text>
</g>
<!-- 母龙（母龍），100%龙&#45;&gt;龙傲天（龍傲天），12.5%人类 + 87.5%龙 -->
<g id="edge27" class="edge"><title>母龙（母龍），100%龙&#45;&gt;龙傲天（龍傲天），12.5%人类 + 87.5%龙</title>
<path fill="none" stroke="black" d="M140.824,-569.965C138.484,-564.059 136.352,-557.937 134.76,-552 96.9324,-410.907 83.6728,-366.944 113.76,-224 116.401,-211.45 121.039,-198.488 126.157,-186.614"/>
<polygon fill="black" stroke="black" points="129.413,-187.908 130.335,-177.353 123.032,-185.029 129.413,-187.908"/>
<text text-anchor="middle" x="110.835" y="-192.353" font-family="consolas" font-size="10.00"> 亲母 &#160;</text>
</g>
<!-- 小弟（小弟）, 100%人类&#45;&gt;龙（龍），100%龙 -->
<g id="edge29" class="edge"><title>小弟（小弟）, 100%人类&#45;&gt;龙（龍），100%龙</title>
<path fill="none" stroke="black" d="M511.347,-333.114C489.623,-345.809 469.507,-362.442 456.76,-384 385.376,-504.73 385.936,-591.283 475.76,-699 479.141,-703.055 482.895,-706.837 486.918,-710.36"/>
<polygon fill="black" stroke="black" points="484.972,-713.287 494.96,-716.822 489.357,-707.83 484.972,-713.287"/>
<text text-anchor="middle" x="361.5" y="-505.734" font-family="consolas" font-size="10.00"> </text>
<text text-anchor="middle" x="361.5" y="-494.734" font-family="consolas" font-size="10.00">杀死</text>
<text text-anchor="middle" x="361.5" y="-483.734" font-family="consolas" font-size="10.00">（王浩然夺还战）</text>
</g>
<!-- 小弟（小弟）, 100%人类&#45;&gt;勇者（勇者），50%人类 + 50%龙 -->
<g id="edge28" class="edge"><title>小弟（小弟）, 100%人类&#45;&gt;勇者（勇者），50%人类 + 50%龙</title>
<path fill="none" stroke="black" d="M645.373,-333.329C655.116,-348.255 664.794,-366.129 669.76,-384 672.459,-393.712 671.928,-404.123 669.785,-414.051"/>
<polygon fill="black" stroke="black" points="666.387,-413.207 667.164,-423.774 673.146,-415.029 666.387,-413.207"/>
<text text-anchor="middle" x="685.76" y="-392.5" font-family="consolas" font-size="10.00"> 跟随</text>
</g>
<!-- 小弟（小弟）, 100%人类&#45;&gt;勇者（勇者），50%人类 + 50%龙 -->
<g id="edge30" class="edge"><title>小弟（小弟）, 100%人类&#45;&gt;勇者（勇者），50%人类 + 50%龙</title>
<path fill="none" stroke="black" d="M565.177,-333.188C542.631,-354.163 524.425,-381.086 539.76,-406 542.072,-409.757 544.729,-413.266 547.659,-416.544"/>
<polygon fill="black" stroke="black" points="545.391,-419.224 554.958,-423.778 550.319,-414.253 545.391,-419.224"/>
<text text-anchor="middle" x="585.26" y="-398" font-family="consolas" font-size="10.00"> 埋葬</text>
<text text-anchor="middle" x="585.26" y="-387" font-family="consolas" font-size="10.00">（王浩然夺还战）</text>
</g>
</g>
</svg>
